<svg width="841" height="412" viewBox="0 0 841 412" fill="none" xmlns="http://www.w3.org/2000/svg">
<g clip-path="url(#clip0_206_2)">
<path d="M430.891 94.1667L826 21V328.021L362 412L430.891 94.1667Z" fill="#8D42DF"/>
<path d="M462.068 69.7991L841 0V292.886L396 373L462.068 69.7991Z" fill="#C591FF"/>
<path d="M155.162 83.5226V247.373H109.761V181.601H54.4005V247.373H9V83.5226H54.4005V145.112H109.761V83.5226H155.162ZM241.598 249C228.626 249 216.969 246.287 206.621 240.866C196.429 235.444 188.401 227.695 182.531 217.624C176.664 207.554 173.729 195.701 173.729 182.065C173.729 168.585 176.664 156.809 182.531 146.739C188.554 136.669 196.661 128.919 206.853 123.497C217.2 118.076 228.858 115.363 241.83 115.363C254.801 115.363 266.383 118.076 276.575 123.497C286.922 128.919 295.03 136.669 300.897 146.739C306.919 156.809 309.93 168.585 309.93 182.065C309.93 195.545 306.919 207.398 300.897 217.624C295.03 227.695 286.922 235.444 276.575 240.866C266.231 246.287 254.57 249 241.598 249ZM241.598 209.49C247.932 209.49 253.18 207.166 257.349 202.518C261.674 197.713 263.835 190.897 263.835 182.065C263.835 173.234 261.674 166.494 257.349 161.846C253.18 157.197 248.008 154.873 241.83 154.873C235.655 154.873 230.479 157.197 226.31 161.846C222.141 166.494 220.056 173.234 220.056 182.065C220.056 191.053 222.064 197.869 226.078 202.518C230.096 207.166 235.268 209.49 241.598 209.49ZM398.587 154.873H378.203V247.373H332.571V154.873H318.441V116.99H332.571V115.828C332.571 99.0942 337.435 86.3116 347.164 77.4799C357.048 68.4922 371.178 64 389.553 64C393.259 64 396.118 64.0763 398.124 64.2324V103.045C396.889 102.889 395.192 102.813 393.028 102.813C388.087 102.813 384.457 103.975 382.141 106.299C379.824 108.467 378.514 112.033 378.203 116.99H398.587V154.873ZM485 154.873H464.616V247.373H418.984V154.873H404.854V116.99H418.984V115.828C418.984 99.0942 423.848 86.3116 433.577 77.4799C443.458 68.4922 457.588 64 475.966 64C479.672 64 482.528 64.0763 484.537 64.2324V103.045C483.299 102.889 481.602 102.813 479.441 102.813C474.497 102.813 470.87 103.975 468.554 106.299C466.238 108.467 464.924 112.033 464.616 116.99H485V154.873Z" fill="white"/>
<path d="M527.089 143.05C531.416 135.488 537.75 129.318 546.093 124.533C554.436 119.748 563.938 117.358 574.598 117.358C586.03 117.358 596.307 120.059 605.421 125.459C614.535 130.859 621.72 138.497 626.974 148.374C632.228 158.095 634.853 169.437 634.853 182.399C634.853 195.205 632.228 206.626 626.974 216.655C621.72 226.684 614.459 234.478 605.189 240.033C596.075 245.588 585.878 248.366 574.598 248.366C563.63 248.366 553.972 245.975 545.629 241.19C537.442 236.406 531.261 230.312 527.089 222.905V246.283H506V75H527.089V143.05ZM613.3 182.399C613.3 172.833 611.37 164.5 607.507 157.401C603.643 150.301 598.392 144.902 591.748 141.198C585.259 137.495 578.074 135.643 570.195 135.643C562.471 135.643 555.287 137.571 548.642 141.43C542.153 145.133 536.899 150.612 532.883 157.864C529.019 164.963 527.089 173.216 527.089 182.63C527.089 192.196 529.019 200.608 532.883 207.86C536.899 214.959 542.153 220.435 548.642 224.294C555.287 227.997 562.471 229.849 570.195 229.849C578.074 229.849 585.259 227.997 591.748 224.294C598.392 220.435 603.643 214.959 607.507 207.86C611.37 200.608 613.3 192.12 613.3 182.399ZM772 119.441L695.522 306H673.738L698.767 244.894L647.55 119.441H670.957L710.818 222.21L750.215 119.441H772Z" fill="black"/>
<path d="M6.14495 326.704C4.42699 326.704 2.97337 326.111 1.78401 324.926C0.594655 323.741 0 322.292 0 320.58C0 318.868 0.594655 317.42 1.78401 316.235C2.97337 315.049 4.42699 314.457 6.14495 314.457C7.79683 314.457 9.18445 315.049 10.3077 316.235C11.4971 317.42 12.0917 318.868 12.0917 320.58C12.0917 322.292 11.4971 323.741 10.3077 324.926C9.18445 326.111 7.79683 326.704 6.14495 326.704ZM20.7113 298.951C20.7113 293.354 21.8345 288.481 24.0811 284.333C26.3276 280.119 29.4332 276.86 33.3977 274.556C37.4283 272.251 42.0205 271.099 47.1744 271.099C53.848 271.099 59.3322 272.712 63.6271 275.938C67.9881 279.165 70.8624 283.642 72.25 289.37H62.5369C61.6118 286.078 59.7948 283.477 57.0857 281.568C54.4427 279.658 51.1389 278.704 47.1744 278.704C42.0205 278.704 37.8578 280.481 34.6862 284.037C31.5146 287.527 29.9288 292.498 29.9288 298.951C29.9288 305.469 31.5146 310.506 34.6862 314.062C37.8578 317.617 42.0205 319.395 47.1744 319.395C51.1389 319.395 54.4427 318.473 57.0857 316.63C59.7287 314.786 61.5458 312.152 62.5369 308.728H72.25C70.7963 314.259 67.889 318.704 63.528 322.062C59.1671 325.354 53.7159 327 47.1744 327C42.0205 327 37.4283 325.848 33.3977 323.543C29.4332 321.239 26.3276 317.979 24.0811 313.765C21.8345 309.551 20.7113 304.613 20.7113 298.951ZM107.97 327C102.882 327 98.2572 325.848 94.0945 323.543C89.9978 321.239 86.7601 317.979 84.3814 313.765C82.0687 309.486 80.9125 304.547 80.9125 298.951C80.9125 293.42 82.1018 288.547 84.4805 284.333C86.9253 280.053 90.2291 276.794 94.3918 274.556C98.5546 272.251 103.213 271.099 108.367 271.099C113.521 271.099 118.179 272.251 122.342 274.556C126.504 276.794 129.775 280.021 132.154 284.235C134.599 288.449 135.821 293.354 135.821 298.951C135.821 304.547 134.566 309.486 132.055 313.765C129.61 317.979 126.273 321.239 122.044 323.543C117.815 325.848 113.124 327 107.97 327ZM107.97 319.099C111.208 319.099 114.247 318.342 117.089 316.827C119.93 315.313 122.209 313.041 123.927 310.012C125.711 306.984 126.604 303.296 126.604 298.951C126.604 294.605 125.744 290.918 124.027 287.889C122.309 284.86 120.062 282.621 117.287 281.173C114.512 279.658 111.505 278.901 108.268 278.901C104.964 278.901 101.924 279.658 99.1492 281.173C96.4401 282.621 94.2597 284.86 92.6078 287.889C90.9559 290.918 90.1299 294.605 90.1299 298.951C90.1299 303.362 90.9229 307.082 92.5087 310.111C94.1605 313.14 96.341 315.412 99.0501 316.926C101.759 318.374 104.733 319.099 107.97 319.099ZM212.997 271C217.226 271 220.992 271.889 224.296 273.667C227.6 275.379 230.21 277.979 232.126 281.469C234.042 284.959 235 289.206 235 294.21V326.111H226.08V295.494C226.08 290.095 224.725 285.979 222.016 283.148C219.373 280.251 215.772 278.802 211.213 278.802C206.522 278.802 202.788 280.317 200.013 283.346C197.238 286.309 195.85 290.621 195.85 296.284V326.111H186.93V295.494C186.93 290.095 185.576 285.979 182.867 283.148C180.224 280.251 176.622 278.802 172.063 278.802C167.372 278.802 163.639 280.317 160.864 283.346C158.088 286.309 156.701 290.621 156.701 296.284V326.111H147.682V271.988H156.701V279.79C158.485 276.959 160.864 274.786 163.837 273.272C166.876 271.757 170.213 271 173.847 271C178.406 271 182.437 272.021 185.939 274.062C189.441 276.103 192.051 279.099 193.769 283.049C195.289 279.23 197.8 276.267 201.302 274.16C204.804 272.053 208.702 271 212.997 271Z" fill="white"/>
</g>
<defs>
<clipPath id="clip0_206_2">
<rect width="841" height="412" fill="white"/>
</clipPath>
</defs>
</svg>
